<svg id="Layer_1" data-name="Layer 1" xmlns="http://www.w3.org/2000/svg" viewBox="0 0 105.62 138.88"><defs><style>.cls-1{fill:#ffd524;}.cls-2{fill:#0f2842;}.cls-3{fill:#253759;}</style></defs><path class="cls-1" d="M1322.6,666.61c.13-3.13-.44-10.1-.46-12.87a3.27,3.27,0,0,0-1.92-2.51c-.8-.25-3.25-.78-4.2.24-2.69,2.89-2.94,4.4-8.4,8.82-4.89,4-10.73,10.52-11.41,11.84-.08.16.1-.14,0,0a65.82,65.82,0,0,0-7.16,12.56c-3.61,7.93-4.29,21.55-3.93,26.59s1.72,15.9,2.71,20.73,3.79,14.8,5.43,18.37c1.5,3.29,1,2.44,1,2.44l-7.85-.47s-.89.62-1.2-.89-.46-6.63-.82-10.32-3.7-21.93-5.47-26.77c-1.51-3.71-3.77-6.63-5.87-10.06a4.64,4.64,0,0,0-2.28-.89c-.07,0-.24.06-.29.12-2.77,3.69-3.53,7.89-4.91,12.29a60.94,60.94,0,0,0-3.27,20.57c0,6.24-1,11.92-1.17,14.73s.21,3.12-2.9,3.17c-2.55,0-7.57.84-9.37.86-.2,0-.09-.27-.06-.32,2-3.57,4.11-7.34,4.79-11.36.83-6.08,0-15.75-3-21.15a104.09,104.09,0,0,0-8.06-11.58s7.37-11,7.25-16.19.65-12.45-4.65-20.66a80.55,80.55,0,0,0-17.39-19.23c-5.19-3.95-5.43-4.41-8.3-4.71-.58.09.62.74.66,1.32,0,1.11,1.19,14.61.72,18.44s-.51,21.32-.51,21.32.13,13.75.26,15.71.72,24.65,1,27.55,1.87,15.49,2.13,20.13-.26,7.52,0,9.69.82,2.29,2.74,3.43,1.08,1,5.54,1.41,4.07-.13,10.31-.39,13.73-.08,14.39.07,1.41,0,1.16,1.49-3.39,10.71-2.71,14.64,1.46,4,3.8,4,6.32.28,6.4-2.42a79.86,79.86,0,0,1,1-11.46c.37-2.06.33-4.18.54-6.26,0-.3,0-1,.33-1a63.65,63.65,0,0,1,10.87.07.82.82,0,0,1,.74.73c.3,2.07,1.29,8.53,2.52,11.5,1.48,3.57,2,6.17,2.53,7.35s.08.88,3.76,1.11c4,.25,7.08,1.22,5-4.78s-2.54-6.13-2.85-10.8.11-6,.11-6a51.76,51.76,0,0,0,5.41.38c5.8.34,17.06,0,17.06,0s5.43-.13,5.85-2.8-.18-7.76,0-12.36,1.18-20,1.75-24.42,1.46-21.1,2.18-31.62S1322.39,671.86,1322.6,666.61Zm-93.19,23.23c-.35-14.64-.57-19.66-.38-21.3,0-.16-.3-.84-.14-.82a.29.29,0,0,1,.16.07c2.88,2.48,9.68,13,10.9,18.36,1.27,5.66,1.23,9.28,0,14-1,4-7.14,9.77-9.15,11.6a.88.88,0,0,1-1.23-.06l-.13-.14c-.17-.19.63-1.15.61-1.4C1230,708.91,1229.76,704.5,1229.41,689.84Zm14,57.82c-2.67,8.55-11.22,14.26-11.22,14.26s.86.1.4-.28.5-17.29,0-23.47-2.33-23.47-2.33-23.47l0-.55a30,30,0,0,1,4.84,4.72c1.3,1.78,3,3.11,4.3,5.13a43.55,43.55,0,0,1,3.17,6.38s3.5,8.72.83,17.28Zm24.56,6.15s1.28-12.26,1.28-16,.33-5.33.61-12.2.3-9.45,1-10.71c0,0,1.17-2.41,1.87-1.48s.94,2.27,1.25,5c.37,3.18.18,8.55,1,16.82s.28,11.83,1.12,18.37Zm42.2-50s-1.7,17.53-1.78,22.83c-.08,5-1.15,27.57-.94,32a.21.21,0,0,1-.19.24.22.22,0,0,1-.2-.08c-2.07-2.58-7.13-14.45-9.77-28.27-2.41-12.36-2.93-24.08-2.45-29,.15-1.49.56-3.86.82-5.41.88-5.27,7-16.6,15.84-23.4.2-.12.13-.89.25-.68a.34.34,0,0,1,0,.17Z" transform="translate(-1216.99 -649.92)"/><path class="cls-2" d="M1319.91,666.43c.13-3,.11-10.08.09-13.18a2.24,2.24,0,0,0-2.73-2.34,7.16,7.16,0,0,0-2,.91c-3.27,2.21-3.91,4-9.37,8.42-4.89,4-10.73,10.52-11.41,11.84-.08.16.1-.14,0,0a65.29,65.29,0,0,0-7.16,12.56c-3.61,7.93-4.29,21.55-3.93,26.59s1.72,15.9,2.71,20.73,3.79,14.8,5.43,18.37c1.5,3.29,1,2.44,1,2.44l-7.85-.47s-2.08.16-2.39-1.35-.21-6.39-.57-10.08-3.33-21.66-5.1-26.5a75,75,0,0,0-5.43-10.73,3.34,3.34,0,0,0-2.22-.28c-.07,0,.28.16.22.23-2.77,3.68-4,7.8-5.35,12.19a61,61,0,0,0-3.27,20.57c0,6.24-1,11.92-1.17,14.73s.21,3.12-2.9,3.17c-2.55,0-7.57.84-9.37.86a.36.36,0,0,1-.37-.36.31.31,0,0,1,0-.19,36.06,36.06,0,0,0,4-11.45c.83-6.08.21-15.28-2.8-20.68a106.46,106.46,0,0,0-8.16-11.85s7.69-11.22,7.43-16.37-.16-12.31-5.46-20.52-10.6-15.12-15.79-19.07-5.49-5-7.73-4.62c-.57.09.05.65.09,1.23,0,1.11,1.19,14.61.72,18.44s-.51,21.32-.51,21.32.13,13.75.26,15.71.72,24.65,1,27.55,1.87,15.49,2.13,20.13-.26,7.52,0,9.69.82,2.29,2.74,3.43,1.08,1,5.54,1.41,4.07-.13,10.31-.39,13.73-.08,14.39.07,1.41-.05,1.16,1.49-3.39,10.71-2.71,14.64,1.46,3.95,3.8,4,5.79.17,5.87-2.53a82.32,82.32,0,0,1,1.24-11.51c.38-2.06.27-4.17.48-6.25a.61.61,0,0,1,.56-.56,67.38,67.38,0,0,1,11-.23.85.85,0,0,1,.74.73c.3,2.07,1.29,8.53,2.52,11.5,1.48,3.57,2,6.17,2.53,7.35s0,1.75,3.67,1.4,6.27.86,4.18-5.14-2.32-6.19-2.63-10.86,0-5.09,0-5.09.4-.74,6.2-.4,17.06,0,17.06,0,4.58,0,5-2.67-.55-7.87-.32-12.47,1.12-20,1.69-24.39,1.35-21.22,2.07-31.74S1319.7,671.68,1319.91,666.43ZM1226.68,690c-.35-14.64,0-20.44.19-22.08a.3.3,0,0,1,.33-.26.28.28,0,0,1,.16.06c2.88,2.48,9.68,13,10.9,18.36,1.27,5.66,1.23,9.28,0,14-1,4-7.14,9.77-9.15,11.6a.88.88,0,0,1-1.23-.06l-.13-.14a1.17,1.17,0,0,1-.3-.69C1227.35,709.57,1227,704.68,1226.68,690Zm15.06,57.59c-2.67,8.55-11.22,14.26-11.22,14.26s-.46.63-.92.25-.46-16.68-1-22.86-.87-24.57-.87-24.57l.87-.59a30.45,30.45,0,0,1,4.84,4.72c1.3,1.78,3,3.11,4.3,5.13a44.06,44.06,0,0,1,3.17,6.38s3.5,8.72.83,17.28Zm24.08,6s1.21-12.15,1.21-15.85.47-5.28.75-12.15.71-9.46,1.37-10.72c0,0,1.17-2.41,1.87-1.48s.94,2.27,1.25,5c.37,3.18.18,8.55,1,16.82s.28,11.83,1.12,18.37Zm42.68-49.81s-1.7,17.53-1.78,22.83c-.08,5-1.15,27.57-.94,32a.22.22,0,0,1-.39.16c-2.07-2.58-8.36-14-11-27.82-2.41-12.36-2.86-25.52-2.38-30.46.15-1.49.22-2.65.48-4.2.88-5.27,8.15-17.66,17-24.46a.44.44,0,0,1,.59.17.3.3,0,0,1,.05.16Z" transform="translate(-1216.99 -649.92)"/><path class="cls-3" d="M1318.49,666.43c.16-3.84.08-14.67.08-14.67s0-2.15-3.27.06-5.33,4-10.79,8.42c-4.89,4-10.73,10.52-11.41,11.84-.08.16.1-.14,0,0a64.77,64.77,0,0,0-7.16,12.56c-3.61,7.93-4.29,21.55-3.93,26.59s1.72,15.9,2.71,20.73,3.79,14.8,5.43,18.37c1.5,3.29,1,2.44,1,2.44l-7.85-.47s-2.08.16-2.39-1.35-.21-6.39-.57-10.08-3.33-21.66-5.1-26.5a76,76,0,0,0-5.43-10.73.67.67,0,0,0-.91-.23.69.69,0,0,0-.18.16,40.39,40.39,0,0,0-6.26,12.21,60.49,60.49,0,0,0-3.27,20.57c0,6.24-1,11.92-1.17,14.73s.21,3.12-2.9,3.17c-2.55,0-7.57.84-9.37.86a.36.36,0,0,1-.38-.36.41.41,0,0,1,.05-.19,36.56,36.56,0,0,0,4-11.45c.83-6.08.21-15.28-2.8-20.68a107.82,107.82,0,0,0-8.16-11.85s7.69-11.22,7.43-16.37-.16-12.31-5.46-20.52-10.6-15.12-15.79-19.07-4.46-5-6.7-4.58a1.12,1.12,0,0,0-.94,1.19c0,1.11,1.19,14.61.72,18.44s-.51,21.32-.51,21.32.13,13.75.26,15.71.72,24.65,1,27.55,1.87,15.49,2.13,20.13-.26,7.52,0,9.69.82,2.29,2.74,3.43,1.08,1,5.54,1.41,4.07-.13,10.31-.39,13.73-.08,14.39.07,1.41-.05,1.16,1.49-3.39,10.71-2.71,14.64,1.46,3.95,3.8,4,5.79.17,5.87-2.53a79.93,79.93,0,0,1,1-10.11,56.81,56.81,0,0,0,.71-7.6.62.62,0,0,1,.57-.61,67.33,67.33,0,0,1,11-.23.86.86,0,0,1,.74.73c.3,2.07,1.29,8.53,2.52,11.5,1.48,3.57,2,6.17,2.53,7.35s0,1.75,3.67,1.4,6.27.86,4.18-5.14-2.32-6.19-2.63-10.86,0-5.09,0-5.09.4-.74,6.2-.4,17.06,0,17.06,0,4.58,0,5-2.67-.55-7.87-.32-12.47,1.12-20,1.69-24.39,1.35-21.22,2.07-31.74S1318.28,671.68,1318.49,666.43ZM1225.26,690c-.35-14.64,0-20.44.19-22.08a.29.29,0,0,1,.33-.26.31.31,0,0,1,.16.06c2.88,2.48,9.68,13,10.9,18.36,1.27,5.66,1.23,9.28,0,14-1,4-7.14,9.77-9.15,11.6a.88.88,0,0,1-1.23-.06l-.13-.14a1.11,1.11,0,0,1-.3-.69C1225.93,709.57,1225.61,704.68,1225.26,690Zm15.06,57.59c-2.67,8.55-11.22,14.26-11.22,14.26s-.46.63-.92.25-.46-16.68-1-22.86-.87-24.57-.87-24.57l.87-.59a31.31,31.31,0,0,1,4.84,4.72c1.3,1.78,3,3.11,4.3,5.13a46.2,46.2,0,0,1,3.17,6.38s3.5,8.72.83,17.28Zm24.08,6s1.21-12.15,1.21-15.85.47-5.28.75-12.15.71-9.46,1.37-10.72c0,0,1.17-2.41,1.87-1.48s.94,2.27,1.25,5c.37,3.18.18,8.55,1,16.82s.28,11.83,1.12,18.37Zm42.68-49.81s-1.7,17.53-1.78,22.83c-.08,5-1.15,27.57-.94,32a.22.22,0,0,1-.2.24.2.2,0,0,1-.19-.08c-2.07-2.58-8.36-14-11-27.82-2.41-12.36-2.86-25.52-2.38-30.46.15-1.49.22-2.65.48-4.2.88-5.27,8.15-17.66,17-24.46a.43.43,0,0,1,.58.17.44.44,0,0,1,.06.16Z" transform="translate(-1216.99 -649.92)"/></svg>